<svg width="158" height="25" viewBox="0 0 158 25" fill="none" xmlns="http://www.w3.org/2000/svg">
<path d="M7.43395 19.2557C10.9197 19.2557 13.1101 17.2102 13.2805 14.2017H9.8544C9.64134 15.5994 8.72088 16.3835 7.47656 16.3835C5.78054 16.3835 4.68111 14.9602 4.68111 12.4545C4.68111 9.98295 5.78906 8.56818 7.47656 8.56818C8.80611 8.56818 9.65838 9.44602 9.8544 10.75H13.2805C13.1271 7.72443 10.8345 5.73864 7.4169 5.73864C3.44531 5.73864 0.990767 8.49148 0.990767 12.5057C0.990767 16.4858 3.4027 19.2557 7.43395 19.2557ZM15.6733 19H19.2528V16.9034H19.4148C19.9176 17.9943 21.017 19.2131 23.1307 19.2131C26.1136 19.2131 28.4403 16.8523 28.4403 12.4716C28.4403 7.97159 26.0114 5.73864 23.1392 5.73864C20.9489 5.73864 19.9006 7.04261 19.4148 8.10795H19.304V1.54545H15.6733V19ZM19.2273 12.4545C19.2273 10.1193 20.2159 8.62784 21.9801 8.62784C23.7784 8.62784 24.733 10.1875 24.733 12.4545C24.733 14.7386 23.7614 16.3239 21.9801 16.3239C20.233 16.3239 19.2273 14.7898 19.2273 12.4545ZM41.755 9.64205C41.4311 7.23011 39.4879 5.73864 36.1811 5.73864C32.8317 5.73864 30.6243 7.28977 30.6328 9.8125C30.6243 11.7727 31.8601 13.0426 34.4169 13.554L36.6839 14.0057C37.826 14.2358 38.3459 14.6534 38.3629 15.3097C38.3459 16.0852 37.5021 16.6392 36.2322 16.6392C34.9368 16.6392 34.076 16.0852 33.8544 15.0199L30.2834 15.2074C30.6243 17.7131 32.755 19.2557 36.2237 19.2557C39.6158 19.2557 42.0447 17.5256 42.0533 14.9432C42.0447 13.0511 40.8089 11.9176 38.2692 11.3977L35.8999 10.9205C34.6811 10.6562 34.2294 10.2386 34.2379 9.60795C34.2294 8.82386 35.1158 8.3125 36.2408 8.3125C37.5021 8.3125 38.2521 9.00284 38.4311 9.84659L41.755 9.64205ZM50.2543 19.2557C54.2259 19.2557 56.6974 16.5369 56.6974 12.5057C56.6974 8.44886 54.2259 5.73864 50.2543 5.73864C46.2827 5.73864 43.8111 8.44886 43.8111 12.5057C43.8111 16.5369 46.2827 19.2557 50.2543 19.2557ZM50.2713 16.4432C48.4389 16.4432 47.5014 14.7642 47.5014 12.4801C47.5014 10.196 48.4389 8.50852 50.2713 8.50852C52.0696 8.50852 53.0071 10.196 53.0071 12.4801C53.0071 14.7642 52.0696 16.4432 50.2713 16.4432ZM66.098 5.90909H63.4986V5.03125C63.4986 4.14489 63.8565 3.625 64.9219 3.625C65.3565 3.625 65.7997 3.71875 66.0895 3.8125L66.7287 1.08523C66.277 0.948864 65.2798 0.727272 64.1634 0.727272C61.7003 0.727272 59.8679 2.11648 59.8679 4.96307V5.90909H58.0185V8.63636H59.8679V19H63.4986V8.63636H66.098V5.90909ZM70.5575 23.9091C73.2592 23.9091 74.6911 22.5284 75.4325 20.4148L80.5206 5.92614L76.6768 5.90909L73.9411 15.5227H73.8047L71.0945 5.90909H67.2763L71.9723 19.375L71.7592 19.929C71.282 21.1562 70.37 21.2159 69.0916 20.8239L68.2734 23.5341C68.7933 23.7557 69.6371 23.9091 70.5575 23.9091ZM85.7365 19.2472C87.6712 19.2472 88.924 18.4034 89.5632 17.1847H89.6655V19H93.1087V10.1705C93.1087 7.05114 90.4666 5.73864 87.5518 5.73864C84.4155 5.73864 82.353 7.23864 81.8501 9.625L85.2081 9.89773C85.4553 9.02841 86.2308 8.3892 87.5348 8.3892C88.7706 8.3892 89.478 9.01136 89.478 10.0852V10.1364C89.478 10.9801 88.5831 11.0909 86.3075 11.3125C83.7166 11.5511 81.3899 12.4205 81.3899 15.3438C81.3899 17.9347 83.2393 19.2472 85.7365 19.2472ZM86.7763 16.7415C85.6598 16.7415 84.8587 16.2216 84.8587 15.2244C84.8587 14.2017 85.7024 13.6989 86.9808 13.5199C87.7734 13.4091 89.0689 13.2216 89.5036 12.9318V14.321C89.5036 15.6932 88.37 16.7415 86.7763 16.7415ZM99.5561 1.54545H95.9254V19H99.5561V1.54545ZM102.464 19H106.095V5.90909H102.464V19ZM114.918 19.2557C118.89 19.2557 121.362 16.5369 121.362 12.5057C121.362 8.44886 118.89 5.73864 114.918 5.73864C110.947 5.73864 108.475 8.44886 108.475 12.5057C108.475 16.5369 110.947 19.2557 114.918 19.2557ZM114.935 16.4432C113.103 16.4432 112.165 14.7642 112.165 12.4801C112.165 10.196 113.103 8.50852 114.935 8.50852C116.734 8.50852 117.671 10.196 117.671 12.4801C117.671 14.7642 116.734 16.4432 114.935 16.4432ZM129.62 24.1818C133.362 24.1818 136.021 22.4773 136.021 19.1278V5.90909H132.415V8.10795H132.279C131.793 7.04261 130.728 5.73864 128.538 5.73864C125.665 5.73864 123.237 7.97159 123.237 12.429C123.237 16.7841 125.597 18.8125 128.546 18.8125C130.634 18.8125 131.802 17.7642 132.279 16.6818H132.433V19.0767C132.433 20.875 131.282 21.5739 129.705 21.5739C128.103 21.5739 127.293 20.875 126.995 20.0824L123.637 20.5341C124.072 22.5966 126.092 24.1818 129.62 24.1818ZM129.697 16.0852C127.915 16.0852 126.944 14.6705 126.944 12.4119C126.944 10.1875 127.898 8.62784 129.697 8.62784C131.461 8.62784 132.45 10.1193 132.45 12.4119C132.45 14.7216 131.444 16.0852 129.697 16.0852ZM131.393 1.34091C131.393 2.14204 130.915 2.86648 129.705 2.86648C128.461 2.86648 128.001 2.125 128.009 1.34091H125.495C125.495 3.40341 127.123 4.78409 129.705 4.78409C132.288 4.78409 133.915 3.40341 133.924 1.34091H131.393ZM142.54 1.54545H138.91V19H142.54V1.54545ZM153.844 13.4261C153.852 15.1818 152.651 16.1023 151.347 16.1023C149.974 16.1023 149.088 15.1392 149.08 13.5966V5.90909H145.449V14.2443C145.457 17.304 147.247 19.1705 149.881 19.1705C151.849 19.1705 153.264 18.1562 153.852 16.6222H153.989V19H157.474V5.90909H153.844V13.4261Z" fill="white"/>
</svg>
